# xmcd CD database file
#
# Track frame offsets:
#	150
#	16041
#	31706
#	44172
#	62140
#	83495
#	101851
#	115901
#	133626
#	150079
#	169394
#	189379
#	202073
#	217340
#	227670
#	248430
#	262012
#	274877
#	289165
#	301668
#	317047
#
# Disc length: 4580 seconds
#
# Revision: 0
# Processed by: cddbd v1.5.2PL0 Copyright (c) Steve Scherf et al.
# Submitted via: CDex 1.51
#
DISCID=2711e215
DTITLE=Australian Country - Great Southern land
DYEAR=1900
DGENRE=Country
TTITLE0=Forever is a long time
TTITLE1=Melting of the snow
TTITLE2=Cowboy Boogie
TTITLE3=Always my best mate
TTITLE4=Temmy
TTITLE5=At 17
TTITLE6=Forget about me
TTITLE7=Love you enuf to leave
TTITLE8=Calling out her name
TTITLE9=You don't want to know
TTITLE10=Girl next door
TTITLE11=Talk back trembling lips
TTITLE12=Half past midnight
TTITLE13=Living down under
TTITLE14=Like the first
TTITLE15=Annie's song
TTITLE16=Take this job and shove it
TTITLE17=The only one
TTITLE18=Three chords My guitar and Me
TTITLE19=Just a gypsy
TTITLE20=My Putback
EXTD=
EXTT0=
EXTT1=
EXTT2=
EXTT3=
EXTT4=
EXTT5=
EXTT6=
EXTT7=
EXTT8=
EXTT9=
EXTT10=
EXTT11=
EXTT12=
EXTT13=
EXTT14=
EXTT15=
EXTT16=
EXTT17=
EXTT18=
EXTT19=
EXTT20=
PLAYORDER=
